<svg xmlns="http://www.w3.org/2000/svg" width="1000" height="1000" viewBox="0 0 1000 1000">
  <defs>
    <style>
      .cls-1 {
        fill: #0046a1;
        fill-rule: evenodd;
      }
    </style>
  </defs>
  <path id="ks-newlogo_1" data-name="ks-newlogo 1" class="cls-1" d="M944.356,494.085c-7.866-1.074-14.212-5.624-21.034-7.886l-39.44-6.572c-17.012-3.93-45.576,0-64.419,0h-17.09c-10.063-3.48-21.554-12.678-31.552-17.088-19.726-8.7-41.768-14.1-64.419-19.716H694.57c-32.524-7.616-73.272-5.517-105.173-13.144H576.25c-19.339-4.456-45.375-3.233-65.733-7.886H481.6c-23.494-5.106-73.306-4.826-93.341,2.628v1.315h1.314c11.049,7.467,32.266,2.869,43.384,10.515-11.671.766-19.578,5.8-31.552,6.572v5.258c38.527,0.3,61.233,27.741,81.509,47.319q-1.314,5.913-2.629,11.829h-2.629c-5.159-6.76-17.7-14.26-27.608-15.773v2.629c1.622,2.6.28,6.472,1.314,10.515,7.093,27.733,7.98,54.053,7.888,88.066h-1.314v-1.314c-8.32-11.445-3.838-38.378-17.091-44.69v1.314c-2.308,3.51-1.479,8.241-5.258,10.515,0.125-14.889-7.153-31.512-15.776-38.118a3.736,3.736,0,0,0-1.315-1.314v15.773c-3.726,6.179-1.56,14.444-3.944,22.345-2.99,9.9-9.044,26.326-18.405,30.231,0.749-5.058,3.119-9.07-1.315-11.829v2.628c-12.978,15.83-20.282,35.249-34.181,49.948-17.186,18.174-47.034,46.984-51.272,76.236,3.952-1.334,8.087-2.734,10.517,1.314-7.114,10.486-12.216,37.617-10.517,52.577l14.461,1.314v2.629c-5.752,7.287-17.378,35.444-17.09,43.375h2.629c3.595-2.814,11.239-3.625,17.09-3.943v1.315c-7.9,6.206-12.4,16.787-18.4,24.973-7.782,10.611-17.722,20.162-24.978,31.546h5.258c4.6-4.066,11.761-4.413,17.091-7.886,5.669-3.694,10.321-8.531,17.09-11.83V842.4c-8.26,6.642-12.422,18.564-19.719,26.288-24.269,25.69-49.976,51.277-77.566,73.607-12.714,10.291-23,25.01-38.125,32.86v-3.943c7.073-11.672,4.895-29.4,9.2-43.375,9.62-31.211,17.42-63.215,28.922-93.324,26.725-69.956,59.491-137.15,98.6-195.847,19.354-29.046,56.208-72.583,46.013-120.925h-1.314c-2.829,3.761-7.467,6.986-11.832,9.2v-21.03c-1.056-1.551-1.017-2.21-1.315-5.258-7.047,1.3-8.361,5.68-14.461,7.887v-5.258c3.731-4.86,2.13-10.8,0-15.773-16.54-8.363-30.808-22.9-49.957-27.6-10.63-2.609-25.261,5.592-32.867,7.887-23.058,6.959-46.753,10.082-69.677,15.773l-19.72,1.314C143.859,491.13,115.543,495,92.454,500.657c-5.771,1.414-20.126.811-23.664-1.314,9.337-1.194,15.765-7.59,23.664-10.515,15.219-5.638,33.031-7.152,47.328-11.83,14.246-4.662,27.943-4.031,42.07-9.2,41.989-15.368,90.922-24.217,134.1-36.8,28.759-8.383,81.88-11.213,90.712-36.8H401.4c-5.265,4-20.113,6-27.608,6.572v-1.314h1.315c5.081-6.025,14.926-6.775,22.349-10.516,19.322-9.735,44.883-24.638,44.7-53.89H313.318c-10.716,0-43.383,2.775-49.957-1.315,11.887-.6,19.391-6.7,27.608-10.515,14.585-6.765,29.549-9.2,43.383-15.773v-1.315c-29.332-.859-48.74-23.487-74.935-24.973-6.286,5.8-15.841,7.511-23.664,11.829-10.8,5.959-23.541,13.667-34.182,21.031-45.133,31.235-89.823,65.009-126.207,105.153-14.648,16.161-37.609,32.343-43.384,56.519h1.315c9.139-7.765,24.189-10.614,35.5-15.773,16.358-7.462,34.4-17.806,51.272-24.973,13.968-5.935,26.784-7.007,42.07-11.83,35.33-11.147,75.341-21.916,111.746-32.86,21.181-6.367,39.642-7.739,60.474-14.459,21.057-6.791,43.729-10.971,65.734-18.4,7.267-2.454,14.525-6.486,23.664-7.886v2.629h-2.63c-8.5,7.1-24.167,7.894-35.5,11.83-23.892,8.3-49.1,15.435-73.621,24.973-48.211,18.751-100.221,35.844-148.557,53.891-15.4,5.751-29.537,7.1-44.7,13.144-24.424,9.742-50.079,15.472-76.251,24.974-8.707,3.161-18.5,7.715-28.922,9.2v-1.314c12.8-15.264,21.212-38.021,34.181-53.891,32.213-39.417,78.5-82.632,119.634-113.04,20.015-14.8,43.033-26.434,63.1-40.746,7.991-5.7,18.829-9.679,22.349-19.716-5.5-4.523-5.442-22.85-2.629-31.546a320.309,320.309,0,0,1,31.552-68.35C336.857,71.779,419.731,41.632,536.811,14.325V15.64a34.588,34.588,0,0,0-5.259,6.572H544.7c7.058-4.431,55.917-8.981,68.362-9.2v1.314c-4.177,3.684-7.648,6.57-13.147,9.2v1.314h48.643c3.775,2.214,10.335.05,15.776,1.314,12.937,3.007,27.506,3.838,40.754,7.887,25,7.641,48.478,19.962,72.307,27.6v1.314h-5.259c-4.3-2.937-10.108-2.233-15.776-3.943-10.171-3.069-44.035-16.045-56.53-6.572h1.314v1.314c10.4,3.134,20.92,1.686,31.552,5.258,48.794,16.392,124.027,54.581,148.557,93.323h-3.944c-6.543-5.87-16.968-7.462-24.978-11.829-19.791-10.791-39.882-21.32-61.789-31.546v2.629c40.1,22.906,71.827,50.679,98.6,86.751,10.366,13.967,25.182,26.909,30.238,46h-1.315c-9.309-12.1-44.352-43.39-60.475-47.319v1.315h2.63c5.025,9.082,14.175,15.027,21.034,22.345,17.588,18.765,41.177,56,48.643,84.122H928.58c-9.421-14.592-30.616-43.619-46.013-51.262v2.629c10.4,8.9,17.241,34.623,24.979,47.319,18.8,30.854,37.753,65.813,47.327,105.152h-3.944c-2.479-7.33-21.219-28.7-27.607-32.86V377.1c5.836,6.816,5.178,17.5,7.887,27.6C938.221,430.845,943.8,462.648,944.356,494.085ZM506.573,181.256c-8.894,7.1-23.124,8.284-34.181,13.144-19.462,8.554-28.838,28.854-28.923,56.519-5.105,3.232-14.814,11.3-17.09,17.088,30.489,0.437,43.7,17.3,67.048,24.973,49.1,16.132,79.588-38.871,86.767-72.292C553.64,209.492,544.086,182.582,506.573,181.256ZM502.629,194.4c59.13-1.374,63.48,73.99,14.462,86.751-25.094,6.532-61.526-29.188-52.587-56.52C471.344,203.719,487.727,205.677,502.629,194.4Zm21.035,9.2c-2.376,7.238-6.213,8.09-6.573,18.4l7.888,9.2,7.888-2.629c1.957-4.135,3.42-5.8,3.944-11.829-1.453-1.819-1.964-3.777-2.63-6.572C529.854,208.232,528.678,205.281,523.664,203.6ZM494.741,490.142H599.914v2.629c-8,12.611-8.624,50.738-13.146,68.349-6.682,26.024-8.723,53.969-15.776,81.494-4.148,16.186-8.966,34.574-10.517,52.576h1.314c7.288-11.351,18.394-20.814,26.293-31.546,27.865-37.859,59.176-72.907,86.768-110.41C687.2,536.45,700.817,521,712.975,504.6c1.9-2.566,7.215-13.193,9.2-14.458H844.442v2.629c-6.639,4.623-9.665,11.868-14.462,18.4-11.131,15.161-24.086,29.151-35.5,44.69-28.537,38.867-63.291,74.29-92.027,113.04-11.427,15.408-24.309,29.6-35.5,44.69-4.336,5.847-7.423,12.709-13.146,17.087,25.3,57.924,50.606,115.137,76.25,173.5,11.609,26.423,29.482,53.859,36.811,82.808H653.816Q601.233,870.018,548.643,753.024h-1.315Q524.981,870,502.629,986.989H400.086c0.345-16.336,5.584-33.111,9.2-47.319,5.911-23.209,7.619-46.636,13.147-68.349,12.643-49.665,16.635-101.487,28.922-149.843,3.79-14.912,2.749-27.16,6.574-42.061,9.006-35.086,11.672-72.561,21.034-109.1C485.346,545.423,492.322,517.047,494.741,490.142Zm411.49,134.07c-4.839-65.175-137.663-53.457-118.32,13.144,9.386,32.316,43.557,39.308,69.677,55.205,29.133,17.73,60.775,40.914,78.88,69.664a136.084,136.084,0,0,1,13.147,27.6c27.8,84.159-45.814,155.778-98.6,178.76-20.708,9.016-45.067,19.9-74.936,13.144-19.193-35.184-32.231-75.434-49.957-111.725h2.629c5.812,5.558,14.257,7.12,22.35,10.516,34.345,14.409,70.946,8.264,89.4-17.088,5.665-7.783,15.438-20.326,10.517-38.117-19.36-70-132.1-65.151-148.557-140.642,13.654-9.92,27.684-34.53,38.125-48.634,25-33.762,55.162-64.839,80.2-98.58,9.785-13.189,20.723-25.276,30.237-38.118l5.259-9.2h22.349l39.44,6.572c34.318,11.178,65.706,33.741,68.362,76.236-20.569,10.039-39.968,25.352-59.159,38.118C920.612,615.494,915.444,622.348,906.231,624.212ZM958.817,604.5c8.934,11.953,8.911,39.381,13.147,56.519,9.49,38.393,13.141,83.222,13.147,130.127q-0.658,23-1.315,46c-0.006,6.993,1.541,19.01-1.315,23.66-0.27-40.4-4.441-85.153-13.146-119.612-4.8-18.985-3.532-35.136-9.2-52.576-5.208-16.017-9.475-33.684-15.776-49.948-2.431-6.276-6.851-11.343-7.888-19.716C943.735,616.8,953.93,609.669,958.817,604.5ZM826.036,821.373c7.158,3.691,12.981,13.045,13.147,23.66-1.615,2-2.836,5.49-3.944,7.886h-1.315v-1.314C828.858,844.378,828,831.176,826.036,821.373ZM350.128,850.29c4.988,8.057-8.232,21.644-10.517,28.917h1.315a182.307,182.307,0,0,1,31.552-26.288v2.629c-4.79,5.114-6.363,12.571-10.518,18.4-12.672,17.782-47.321,54.333-72.306,57.834v-1.315c11.434-11.115,19.614-26.23,28.922-39.432C328.268,877.291,341.087,864.84,350.128,850.29Z"/>
</svg>
