<svg id="Groupe_4" data-name="Groupe 4" xmlns="http://www.w3.org/2000/svg" width="500" height="500" viewBox="0 0 500 500">
  <defs>
    <style>
      .cls-1 {
        font-size: 34.356px;
        text-anchor: middle;
        font-family: Marianne;
        font-weight: 800;
        font-style: italic;
        text-transform: uppercase;
      }

      .cls-1, .cls-2 {
        fill: #0e0e0e;
      }

      .cls-2 {
        fill-rule: evenodd;
      }
    </style>
  </defs>
  <g id="Groupe_1" data-name="Groupe 1">
    <g id="Groupe_3" data-name="Groupe 3">
      <text id="KS" class="cls-1" transform="translate(91.081 100.552) scale(3.299)"><tspan x="0">KS</tspan></text>
    </g>
    <path id="KSM_1" data-name="KSM 1" class="cls-2" d="M276.774,10.735c26.434,0.392,51.527,6.7,68.85,17.193L362.836,43.21l29.643-.955c26.065,0.3,62.29,5.485,76.5,19.1v0.955L434.554,79.506c-27.7,11.988-93.713,29.4-84.149,74.5,4.541,21.418,23.364,35.453,33.468,52.533,9.428,15.935,13.656,34.294,21.038,52.533-5.568-1.623-7.725-5.342-10.519-9.552l-1.913,1.911c6.075,15.624,8.554,40.008,5.738,61.129l-1.913-.955q-0.477-1.91-.956-3.821h-0.956c-2.771,27.634-5.229,63.969-21.037,79.278H372.4c4.121-27.076,11.073-55.191,14.344-85.008H387.7c1.53,2.577.325,1.315,2.869,2.865v-1.91c5.675-13.243-2.178-37.482-5.737-47.758l4.781,2.866-8.606-20.058,8.606,5.731c-12.745-46.63-70.572-74.854-37.294-127.035L341.8,123.443l11.475-15.283c-38.468,18.88-64.93,43.565-50.681,100.291l-3.825-2.865-4.781-11.462H293.03q1.436,10.983,2.869,21.968c-2.58-1.528-1.317-.324-2.869-2.865-6.338-10.912-2.391-27.257-6.693-39.161q-1.912,10.5-3.825,21.013h-0.956c-1.486-21.774,3.98-36.911,11.474-51.578l-8.606,5.731,21.994-25.789L295.9,129.174l13.387-15.283q-8.127,3.82-16.256,7.641,1.913-2.386,3.825-4.775l3.825-5.731-0.956-.955c-9.547,2.726-18.289,4.6-25.818,8.6q1.911-2.865,3.825-5.731l8.606-6.686-25.819-.955c2.611-3.473,6.687-3.556,10.519-5.731-81.29-26.509-75.326,39.87-107.1,82.143l-22.95,20.058c-12.638,15.724-23.307,32.366-31.556,52.533,17.258-9.012,73.942-66.178,92.755-53.488,9.878,6.662,10.753,30.237,6.694,44.892-6.836,24.685-25.267,67.629-53.549,69.726-6.018-3.165-8.518-8.018-6.694-16.238-12.162,9.317-21.731,27.409-38.25,31.52q4.78-8.595,9.563-17.193l-2.869,1.911c-4.025,8.83-47.512,48.443-53.549,44.892l34.425-85.964L84.57,285.818c10.549-40.6,43.518-66.54,58.331-101.246,13.684-32.062,15.066-67.74,30.6-96.47L156.288,105.3V104.34c16.411-42.707,41.02-74.095,86.062-87.874Zm-2.868,10.507-29.644,5.731c-24.04,7.792-46.709,24.385-57.374,45.847l11.475-4.776-6.694,12.417c15.887-8.73,34.908-10.1,54.506-18.148,14.747-6.059,19.724-14.241,43.03-14.327l-1.912-2.865,22.95,6.686-5.738-5.731,34.425,8.6q-0.955-2.388-1.913-4.776l6.694,3.821c1.861-3.353,4.945-5.206,7.65-7.641V45.121C334.521,28.234,307.735,21.145,273.906,21.242ZM411.6,58.493l-46.856,7.641-35.38,18.148v0.955L455.591,61.358V60.4ZM282.512,62.313c-5.775,4.625-7.6,6.552-11.475,13.372,1.064,11.033,6.025,13.713,12.431,19.1,14.5,0.158,17.182-6.27,25.818-11.462C301.709,73.35,300.9,62.123,282.512,62.313Zm2.868,3.821,10.519,1.91c2.956,4.053,4.914,5.734,5.738,12.417l-7.65,10.507-7.65.955-8.606-5.731c-1.168-3.675-2.843-8.129-.957-12.417C278.922,69.342,281.585,68.75,285.38,66.134Zm0,6.686v0ZM186.888,299.19c4.195,5.432-22.17,45.589-26.775,52.533C131.62,394.689,89.344,461.035,48.233,489.265L69.27,439.6l-1.912.955C61.582,455.038,44.093,474.1,31.02,481.623c11.448-36.755,44.7-66.609,65.981-95.514l25.818-35.341c0.635,2.936-.856,1.894,3.825,2.866C150.545,342.248,173.274,320.924,186.888,299.19Zm186.467,31.52c7.117,6.429,2.559,28.816,0,38.206-8.288,30.4-24.405,73.907-50.681,85.963q15.775-28.651,31.556-57.309C363.188,376.76,366.148,354.351,373.355,330.71Zm-260.1,20.058c-2.26,13.277-60.837,87.69-75.543,92.65C55.987,405.7,83.177,376.916,113.257,350.768Zm-23.906,3.821h1.912c-6.984,18.465-25.322,41.584-42.075,50.623C56.66,381.7,76,371.6,89.351,354.589ZM331.28,411.9l1.913,1.91c-11.912,37.265-27.276,55.011-60.244,70.681l16.256-14.327C304.678,455.723,324.08,433.606,331.28,411.9ZM305.462,429.09c6.184,27.02-48.377,52.93-70.762,60.175l27.731-18.148C277.753,460.021,295.013,445.019,305.462,429.09Z"/>
  </g>
</svg>
